<?xml version="1.0" encoding="utf-8"?>
<!-- Generator: Adobe Illustrator 22.0.1, SVG Export Plug-In . SVG Version: 6.00 Build 0)  -->
<svg version="1.1" id="レイヤー_1" xmlns="http://www.w3.org/2000/svg" xmlns:xlink="http://www.w3.org/1999/xlink" x="0px"
	 y="0px" width="1308px" height="396.8px" viewBox="0 0 1308 396.8" style="enable-background:new 0 0 1308 396.8;"
	 xml:space="preserve">
<style type="text/css">
	.st0{fill:#FFFFFF;}
</style>
<g>
	<path class="st0" d="M466.9,0h-35.5L313,273.2h-99.5c-7.9-51.5-52.4-91.1-106.1-91.1C48.2,182.2,0,230.3,0,289.5
		s48.2,107.3,107.3,107.3c53.7,0,98.2-39.6,106.1-91.1h120.8l4.3-9.8l0.1,0L466.9,0z M107.3,364.3c-41.3,0-74.8-33.6-74.8-74.8
		s33.6-74.8,74.8-74.8s74.8,33.6,74.8,74.8S148.6,364.3,107.3,364.3z"/>
	<polygon class="st0" points="633.3,0 597.8,0 478.9,273.2 375,273.2 360.8,305.8 500.2,305.8 511.2,280.4 	"/>
	<polygon class="st0" points="891.6,305.8 1023.4,0 988,0 870.3,273.2 759.3,273.2 877,0 841.6,0 723.9,273.2 619.5,273.2 737.2,0 
		701.7,0 569.9,305.8 	"/>
	<path class="st0" d="M1098.5,0l-56.8,131.7h-27.7l-14.2,32.5h27.8l-61,141.5h20.2h15.2h138.6h29.2h6.3L1308,0H1098.5z
		 M1154.7,273.2h-138.6l46.9-109h30.4l14.2-32.5h-30.5l42.7-99.2h138.6L1154.7,273.2z"/>
</g>
<g>
</g>
<g>
</g>
<g>
</g>
<g>
</g>
<g>
</g>
<g>
</g>
<g>
</g>
<g>
</g>
<g>
</g>
<g>
</g>
<g>
</g>
<g>
</g>
<g>
</g>
<g>
</g>
<g>
</g>
</svg>
