<?xml version="1.0" encoding="utf-8"?>
<!-- Generator: Adobe Illustrator 22.0.1, SVG Export Plug-In . SVG Version: 6.00 Build 0)  -->
<svg version="1.1" id="レイヤー_1" xmlns="http://www.w3.org/2000/svg" xmlns:xlink="http://www.w3.org/1999/xlink" x="0px"
	 y="0px" width="601.1px" height="628.2px" viewBox="0 0 601.1 628.2" style="enable-background:new 0 0 601.1 628.2;"
	 xml:space="preserve">
<style type="text/css">
	.st0{fill:#FFFFFF;}
</style>
<g>
	<path class="st0" d="M72.9,19.7L62,81.3c-3.3,18.4-4,20.8-7.8,26.4c-5.2,7.7-13.6,11.6-25.2,11.6c-12.2,0-20.1-3.2-29-11.7l12-11.8
		c4.7,5.9,9.9,8.9,15.8,8.9c5.6,0,9.8-2.8,12.4-8.5c1.5-3.3,2.3-6.5,4.1-16.8l10.6-59.7H72.9z"/>
	<path class="st0" d="M88,94.2c2.9,7.2,9.6,10.6,20.6,10.6c12.5,0,20.1-6.2,20.1-16.2c0-3.3-1.2-5.9-3.4-7.6
		c-2.8-1.9-2.8-1.9-15.8-5.4c-16.2-4.3-23.7-12-23.7-24.5c0-20.2,13.9-32.9,36-32.9c15.8,0,26.4,5.1,31,14.7l-15,8.7
		c-3.2-5.9-8.8-8.8-17.2-8.8c-10,0-16.8,6.2-16.8,15.4c0,6.6,4,9.6,17.2,13.2c10.3,2.8,14.2,4.3,18.3,7.3c5,3.9,7.4,9.2,7.4,16.5
		c0,21.7-14,34.1-38.8,34.1c-10.9,0-20.8-2.3-27-6.3c-4-2.6-6.2-5.2-8.4-10L88,94.2z"/>
	<path class="st0" d="M166.9,54.9c2.6-14.4,5.5-20.9,12.2-27.2c7.3-6.7,15.5-9.5,28.6-9.5c21.3,0,32.6,9.2,32.6,26.8
		c0,3.6-0.6,8.8-1.5,14.2l-4.1,23.5c-2.6,14.4-5.5,21-12.2,27.2c-7.2,6.6-15.7,9.5-27.9,9.5c-12.7,0-19.9-2.1-25.7-7.4
		c-5.1-4.8-7.6-11-7.6-19.3c0-3.7,0.6-8.8,1.5-14.4L166.9,54.9z M220.9,58.6c0.8-5,1.2-8.5,1.2-11.4c0-9.6-5.1-14.4-15.4-14.4
		c-13.1,0-19.1,7-22.6,25.9L180.6,79c-0.8,5-1.2,8.7-1.2,11.6c0,9.5,5.2,14.3,15.3,14.3c13.2,0,19.3-7,22.7-25.9L220.9,58.6z"/>
	<path class="st0" d="M267.8,19.7h17.5l27.2,68l12-68H342l-17.3,98.2h-17.5l-27.2-68l-12,68h-17.5L267.8,19.7z"/>
	<path class="st0" d="M359.3,47.3h17.2L364,117.9h-17.1L359.3,47.3z M364.4,18.8h17.1l-3,17.6h-17.1L364.4,18.8z"/>
	<path class="st0" d="M381.3,107.2l39.2-46.1H392l2.3-13.8H444L442.2,58L403,104.1h33l-2.3,13.8h-54.3L381.3,107.2z"/>
	<path class="st0" d="M470.8,89c-0.4,1.9-0.6,3.7-0.6,5.2c0,7.7,4.5,11.8,12.9,11.8c6.7,0,11.1-2.1,15.5-7.3l11.1,9.1
		c-6.7,8.4-14.6,11.6-28.3,11.6c-19.1,0-28.2-7.6-28.2-23.4c0-3.6,0.4-8.4,1.4-13.1l0.8-5.1c2.1-11.7,4.5-17.9,9.2-23
		c5.6-6.2,13.6-9.1,24.5-9.1c18.4,0,27.4,8,27.4,24.2c0,4.7-0.8,10.5-2.2,16.8h-43.2L470.8,89z M500.4,74.8c0.6-2.2,0.7-3.6,0.7-5.6
		c0-7.3-3.7-10.9-11.4-10.9c-8.5,0-14.7,5.6-16.2,15.1l-0.3,1.4H500.4z"/>
	<path class="st0" d="M570.4,112.7c-0.4,0.3-0.8,0.7-1,0.8c-4.7,4.4-9.2,5.9-16.9,5.9c-16.4,0-24.1-6.7-24.1-21.2
		c0-3.4,0.4-8,1.2-12.7l1.9-10.3c3.7-21,12-29.4,29.4-29.4c5.2,0,9.2,0.8,13.5,2.8c0.8,0.3,0.8,0.3,2.8,1.8c0.5,0.3,0.5,0.4,1.2,0.8
		l5.5-31.5h17.1l-17.3,98.2h-13.2L570.4,112.7z M546.6,86.5c-0.6,2.9-0.8,5.5-0.8,7.8c0,7.6,3.3,11.3,10.3,11.3
		c8.8,0,13.6-5.1,15.7-16.1l2.3-13.9c0.3-1.7,0.6-4,0.6-5.5c0-7.2-3.6-10.7-10.7-10.7c-8.8,0-13.6,5.8-16,19.3L546.6,86.5z"/>
	<path class="st0" d="M72.9,152.8L62,214.4c-3.3,18.4-4,20.8-7.8,26.4c-5.2,7.7-13.6,11.6-25.2,11.6c-12.2,0-20.1-3.2-29-11.7
		l12-11.8c4.7,5.9,9.9,8.9,15.8,8.9c5.6,0,9.8-2.8,12.4-8.5c1.5-3.3,2.3-6.5,4.1-16.8l10.6-59.7H72.9z"/>
	<path class="st0" d="M121.5,205.2c0.4-2.1,0.5-3.6,0.5-4.5c0-5.4-3.6-8.1-10.3-8.1c-5.8,0-10.9,2.3-15.5,7l-10.3-8.4
		c7.2-8.4,15.7-12.2,27.4-12.2c8.9,0,16.5,2.2,21,6.2c3.2,2.9,4.8,7.2,4.8,12.7c0,3.2-0.4,6.9-1.4,12.5l-7.3,40.7h-13.3l-0.7-3.3
		c-4.3,3.4-9.4,4.8-17.7,4.8c-15.8,0-23.1-5.4-23.1-17.1c0-8.5,2.5-16.4,6.5-20.6c4.3-4.5,11-6.5,22.6-6.5h16.4L121.5,205.2z
		 M106.7,219.9c-5.5,0-8.9,1-11.1,3.3c-2.2,2.1-3.4,5.9-3.4,9.9c0,4.7,3,6.5,10.9,6.5c5.5,0,9.2-1.2,11.6-3.9c1.5-1.8,2.1-3.4,3-8.4
		l1.2-7.4H106.7z"/>
	<path class="st0" d="M162.7,180.4h13.2l1,4.7c5.2-4.5,10-6.2,17.2-6.2c16.4,0,24.1,6.9,24.1,21.2c0,3.6-0.4,7.3-1.4,12.5l-1.8,10.5
		c-3.7,21.2-12,29.4-29.6,29.4c-6.7,0-11.8-1.7-17.3-5.5l-6.2,34.9h-17.1L162.7,180.4z M200,211.8c0.7-3.7,0.8-5.5,0.8-7.8
		c0-7.7-3.3-11.4-10.3-11.4c-8.8,0-13.8,5.1-15.7,16.2l-2.5,13.9c-0.4,2.3-0.6,4-0.6,5.5c0,7,3.6,10.6,10.7,10.6
		c8.8,0,13.8-5.8,16.1-19.1L200,211.8z"/>
	<path class="st0" d="M272.6,205.2c0.4-2.1,0.5-3.6,0.5-4.5c0-5.4-3.6-8.1-10.3-8.1c-5.8,0-10.9,2.3-15.5,7l-10.3-8.4
		c7.2-8.4,15.7-12.2,27.4-12.2c8.9,0,16.5,2.2,21,6.2c3.2,2.9,4.8,7.2,4.8,12.7c0,3.2-0.4,6.9-1.4,12.5l-7.3,40.7h-13.3l-0.7-3.3
		c-4.3,3.4-9.4,4.8-17.7,4.8c-15.8,0-23.1-5.4-23.1-17.1c0-8.5,2.5-16.4,6.5-20.6c4.3-4.5,11-6.5,22.6-6.5h16.4L272.6,205.2z
		 M257.9,219.9c-5.5,0-8.9,1-11.1,3.3c-2.2,2.1-3.4,5.9-3.4,9.9c0,4.7,3,6.5,10.9,6.5c5.5,0,9.2-1.2,11.6-3.9c1.5-1.8,2.1-3.4,3-8.4
		l1.2-7.4H257.9z"/>
	<path class="st0" d="M313.9,180.4h12.9l0.4,5.9c5.1-5.4,10.7-7.4,19.4-7.4c14,0,21.9,6.9,21.9,19.1c0,3.6-0.5,8.3-1.7,14.4
		l-6.7,38.5h-17.1l6.7-38.5c0.7-4,1-6.1,1-8.4c0-7-3.2-10.6-9.5-10.6c-9.2,0-13.5,5.6-16.2,21l-6.5,36.5h-17.1L313.9,180.4z"/>
	<path class="st0" d="M400,222.1c-0.4,1.9-0.5,3.7-0.5,5.2c0,7.7,4.5,11.8,12.9,11.8c6.7,0,11.1-2.1,15.5-7.3l11.1,9.1
		c-6.7,8.4-14.6,11.6-28.3,11.6c-19.1,0-28.2-7.6-28.2-23.4c0-3.6,0.4-8.4,1.4-13.1l0.8-5.1c2.1-11.7,4.5-17.9,9.2-23
		c5.6-6.2,13.6-9.1,24.5-9.1c18.4,0,27.4,8,27.4,24.2c0,4.7-0.8,10.5-2.2,16.8h-43.2L400,222.1z M429.6,207.9
		c0.5-2.2,0.7-3.6,0.7-5.6c0-7.3-3.7-10.9-11.4-10.9c-8.5,0-14.7,5.6-16.2,15.1l-0.3,1.4H429.6z"/>
	<path class="st0" d="M464,231.7c3.3,5.2,7.8,7.4,15.7,7.4c9.2,0,14.9-4,14.9-10.6c0-2.1-0.7-3.4-2.2-4.4c-1.8-1.1-2.3-1.2-11.7-2.3
		c-14.4-1.8-20.5-7.3-20.5-18.4c0-15.1,10.6-24.5,27.8-24.5c8.8,0,16.9,2.2,21.6,5.9c2.5,1.9,4,3.9,5.8,7.6l-13.2,7
		c-3-5-7.3-7.2-13.8-7.2c-7,0-11.6,3.7-11.6,9.5c0,4.3,2.2,5.5,11,6.6c17.6,1.9,23.4,6.6,23.4,18.7c0,17.1-10.6,25.4-32.1,25.4
		c-15.7,0-25.3-4.5-28.9-13.5L464,231.7z"/>
	<path class="st0" d="M542.7,222.1c-0.4,1.9-0.6,3.7-0.6,5.2c0,7.7,4.5,11.8,12.9,11.8c6.7,0,11.1-2.1,15.5-7.3l11.1,9.1
		c-6.7,8.4-14.6,11.6-28.3,11.6c-19.1,0-28.2-7.6-28.2-23.4c0-3.6,0.4-8.4,1.4-13.1l0.8-5.1c2.1-11.7,4.5-17.9,9.2-23
		c5.6-6.2,13.6-9.1,24.5-9.1c18.4,0,27.4,8,27.4,24.2c0,4.7-0.8,10.5-2.2,16.8h-43.2L542.7,222.1z M572.2,207.9
		c0.6-2.2,0.7-3.6,0.7-5.6c0-7.3-3.7-10.9-11.4-10.9c-8.5,0-14.7,5.6-16.2,15.1l-0.3,1.4H572.2z"/>
	<path class="st0" d="M20.8,285.9h17.6l2.9,73.5l32.2-73.5h13.8l6.3,73.5l28.8-73.5h18.4l-42.2,98.2H82.4l-6.7-69.2l-31.2,69.2H28.3
		L20.8,285.9z"/>
	<path class="st0" d="M156.5,355.2c-0.4,1.9-0.6,3.7-0.6,5.2c0,7.7,4.5,11.8,12.9,11.8c6.7,0,11.1-2.1,15.5-7.3l11.1,9.1
		c-6.7,8.4-14.6,11.6-28.3,11.6c-19.1,0-28.2-7.6-28.2-23.4c0-3.6,0.4-8.4,1.4-13.1l0.8-5.1c2.1-11.7,4.5-17.9,9.2-23
		c5.6-6.2,13.6-9.1,24.5-9.1c18.4,0,27.4,8,27.4,24.2c0,4.7-0.8,10.5-2.2,16.8h-43.2L156.5,355.2z M186.1,341.1
		c0.6-2.2,0.7-3.6,0.7-5.6c0-7.3-3.7-10.9-11.4-10.9c-8.5,0-14.7,5.6-16.2,15.1l-0.3,1.4H186.1z"/>
	<path class="st0" d="M256.1,338.3c0.4-2.1,0.6-3.6,0.6-4.5c0-5.4-3.6-8.1-10.3-8.1c-5.8,0-10.9,2.3-15.5,7l-10.3-8.4
		c7.2-8.4,15.7-12.2,27.4-12.2c8.9,0,16.5,2.2,21,6.2c3.2,2.9,4.8,7.2,4.8,12.7c0,3.2-0.4,6.9-1.4,12.5l-7.3,40.7h-13.3l-0.7-3.3
		c-4.3,3.4-9.4,4.8-17.7,4.8c-15.8,0-23.1-5.4-23.1-17.1c0-8.5,2.5-16.4,6.5-20.6c4.3-4.5,11-6.5,22.6-6.5h16.4L256.1,338.3z
		 M241.4,353c-5.5,0-8.9,1-11.1,3.3c-2.2,2.1-3.4,5.9-3.4,9.9c0,4.7,3,6.5,10.9,6.5c5.5,0,9.2-1.2,11.6-3.9c1.5-1.8,2.1-3.4,3-8.4
		l1.2-7.4H241.4z"/>
	<path class="st0" d="M288.9,327l2.3-13.5h8.4l4.7-20.6H320l-3.7,20.6h14l-2.3,13.5h-14l-4.8,27.4c-1,5.8-1.1,6.3-1.1,8.1
		c0,5.9,2.5,7.7,10.5,7.7h1.9l-2.5,13.9h-2.2c-18.8,0-25-4-25-16.1c0-4,0.6-9.4,1.7-15.5l4.5-25.4H288.9z"/>
	<path class="st0" d="M349.9,285.9H367l-5.5,31.2c6.2-4.1,9.2-5.1,15.8-5.1c13.9,0,22.3,7.2,22.3,19c0,3.6-0.6,8.7-1.7,14.6
		l-6.7,38.5h-17.1l6.9-39.5c0.5-3,0.8-5.4,0.8-7.4c0-7-3.2-10.5-9.5-10.5c-8.9,0-13.6,5.8-16.1,19.8l-6.6,37.6h-17.1L349.9,285.9z"
		/>
	<path class="st0" d="M431.1,355.2c-0.4,1.9-0.6,3.7-0.6,5.2c0,7.7,4.5,11.8,12.9,11.8c6.7,0,11.1-2.1,15.5-7.3l11.1,9.1
		c-6.7,8.4-14.6,11.6-28.3,11.6c-19.1,0-28.2-7.6-28.2-23.4c0-3.6,0.4-8.4,1.4-13.1l0.8-5.1c2.1-11.7,4.5-17.9,9.2-23
		c5.6-6.2,13.6-9.1,24.5-9.1c18.4,0,27.4,8,27.4,24.2c0,4.7-0.8,10.5-2.2,16.8h-43.2L431.1,355.2z M460.7,341.1
		c0.6-2.2,0.7-3.6,0.7-5.6c0-7.3-3.7-10.9-11.4-10.9c-8.5,0-14.7,5.6-16.2,15.1l-0.3,1.4H460.7z"/>
	<path class="st0" d="M498.8,313.5H512l1.1,5.5c5.6-5.4,9.4-7,15.7-7c5.1,0,9.1,1.2,14.4,4.4l-9.9,14c-3.2-2.8-5.6-3.9-8.7-3.9
		c-7.8,0-12.2,6.9-15.1,23.4l-6.1,34.1h-17.1L498.8,313.5z"/>
	<path class="st0" d="M29.8,419h31.2c11.3,0,18.4,1.7,23.5,5.2c6.7,4.8,10.2,11.8,10.2,20.9c0,3.7-0.6,8.4-1.5,14l-3.9,22.1
		c-3.6,24.5-16.9,36.2-41.4,35.9H12.5L29.8,419z M45.1,502.8c16.5,0.3,23.2-5.9,26.8-25l3.4-19.3c0.8-5.1,1.2-8.1,1.2-11
		c0-5.1-2.1-9.1-5.8-11.6c-2.6-1.7-6.9-2.5-13.5-2.5H45.3l-12.1,69.3H45.1z"/>
	<path class="st0" d="M147.5,471.4c0.4-2.1,0.5-3.6,0.5-4.5c0-5.4-3.6-8.1-10.3-8.1c-5.8,0-10.9,2.3-15.5,7l-10.3-8.4
		c7.2-8.4,15.7-12.2,27.4-12.2c8.9,0,16.5,2.2,21,6.2c3.2,2.9,4.8,7.2,4.8,12.7c0,3.2-0.4,6.9-1.4,12.5l-7.3,40.7h-13.3l-0.7-3.3
		c-4.3,3.4-9.4,4.8-17.7,4.8c-15.8,0-23.1-5.4-23.1-17.1c0-8.5,2.5-16.4,6.5-20.6c4.3-4.5,11-6.5,22.6-6.5h16.4L147.5,471.4z
		 M132.7,486.1c-5.5,0-8.9,1-11.1,3.3c-2.2,2.1-3.4,5.9-3.4,9.9c0,4.7,3,6.5,10.9,6.5c5.5,0,9.2-1.2,11.6-3.9c1.5-1.8,2.1-3.4,3-8.4
		l1.2-7.4H132.7z"/>
	<path class="st0" d="M180.2,460.1l2.3-13.5h8.4l4.7-20.6h15.7l-3.7,20.6h14l-2.3,13.5h-14l-4.8,27.4c-1,5.8-1.1,6.3-1.1,8.1
		c0,5.9,2.5,7.7,10.5,7.7h1.9l-2.5,13.9H207c-18.8,0-25-4-25-16.1c0-4,0.5-9.4,1.7-15.5l4.5-25.4H180.2z"/>
	<path class="st0" d="M268.2,471.4c0.4-2.1,0.6-3.6,0.6-4.5c0-5.4-3.6-8.1-10.3-8.1c-5.8,0-10.9,2.3-15.5,7l-10.3-8.4
		c7.2-8.4,15.7-12.2,27.4-12.2c8.9,0,16.5,2.2,21,6.2c3.2,2.9,4.8,7.2,4.8,12.7c0,3.2-0.4,6.9-1.4,12.5l-7.3,40.7h-13.3l-0.7-3.3
		c-4.3,3.4-9.4,4.8-17.7,4.8c-15.8,0-23.1-5.4-23.1-17.1c0-8.5,2.5-16.4,6.5-20.6c4.3-4.5,11-6.5,22.6-6.5h16.4L268.2,471.4z
		 M253.5,486.1c-5.5,0-8.9,1-11.1,3.3c-2.2,2.1-3.4,5.9-3.4,9.9c0,4.7,3,6.5,10.9,6.5c5.5,0,9.2-1.2,11.6-3.9c1.5-1.8,2.1-3.4,3-8.4
		l1.2-7.4H253.5z"/>
</g>
<g>
	<path class="st0" d="M17.8,554.9h7.5c2.6,0,4.3,0.5,5.5,1.4c1.5,1.2,2.4,3,2.4,5.1c0,0.8-0.1,2-0.4,3.3l-1.1,6.1
		c-0.9,6-4.5,9.3-10.2,9.2h-8.1L17.8,554.9z M21.1,578.2c4.8,0.1,7.6-2.5,8.5-7.9l1-5.7c0.2-1,0.3-2.2,0.3-2.9c0-1.6-0.7-3.1-1.8-4
		c-0.9-0.7-2.2-1-4.2-1h-5.3l-3.8,21.5H21.1z"/>
	<path class="st0" d="M40.9,572.5c-0.1,0.5-0.1,1.1-0.1,1.7c0,2.9,1.6,4.4,4.6,4.4c1.9,0,3.1-0.5,4.3-1.7l1.4,1.2
		c-1.4,1.6-3.2,2.3-5.8,2.3c-4.4,0-6.6-2-6.6-5.8c0-0.8,0.1-1.7,0.3-2.7l0.3-1.6c0.9-5.5,3.4-8,8-8c4,0,6.1,1.9,6.1,5.7
		c0,1.1-0.1,2.5-0.4,3.7H41.1L40.9,572.5z M51.1,569.9c0.1-0.6,0.1-1.2,0.1-1.9c0-2.7-1.3-4.1-4-4.1c-3.1,0-5.2,2.1-5.8,5.8l0,0.2
		H51.1z"/>
	<path class="st0" d="M59.4,562.5h2.1l2.7,14.6l7.8-14.6h2.2L64.6,580h-1.8L59.4,562.5z"/>
	<path class="st0" d="M79.7,572.5c-0.1,0.5-0.1,1.1-0.1,1.7c0,2.9,1.6,4.4,4.6,4.4c1.9,0,3.1-0.5,4.3-1.7l1.4,1.2
		c-1.4,1.6-3.2,2.3-5.8,2.3c-4.4,0-6.6-2-6.6-5.8c0-0.8,0.1-1.7,0.3-2.7l0.3-1.6c0.9-5.5,3.4-8,8-8c4,0,6.1,1.9,6.1,5.7
		c0,1.1-0.1,2.5-0.4,3.7H79.9L79.7,572.5z M89.9,569.9c0.1-0.6,0.1-1.2,0.1-1.9c0-2.7-1.3-4.1-4-4.1c-3.1,0-5.2,2.1-5.8,5.8l0,0.2
		H89.9z"/>
	<path class="st0" d="M103.8,554.9l-3.5,20c-0.1,0.8-0.2,1.1-0.2,1.5c0,1.4,0.7,1.9,2.7,1.9h0.8l-0.3,1.8h-1c-3.2,0-4.4-0.8-4.4-3
		c0-0.6,0.1-1.3,0.3-2.4l3.4-19.7H103.8z"/>
	<path class="st0" d="M110,569.6c0.9-5.1,3.4-7.4,8-7.4c4.2,0,6.3,1.8,6.3,5.4c0,0.7-0.1,1.7-0.3,2.6l-0.5,2.7
		c-0.9,5.1-3.4,7.4-7.9,7.4c-4.2,0-6.4-1.8-6.4-5.5c0-0.8,0.1-1.6,0.2-2.5L110,569.6z M121.9,570c0.1-0.9,0.2-1.5,0.2-2.1
		c0-2.6-1.5-4-4.3-4c-3.3,0-5.2,1.9-5.9,6.1l-0.4,2.5c-0.2,0.8-0.2,1.3-0.2,1.9c0,2.7,1.4,4,4.3,4c3.3,0,5.1-1.9,5.8-6L121.9,570z"
		/>
	<path class="st0" d="M132.8,562.5h1.7l-0.1,2c1.4-1.7,3-2.4,5.4-2.4c3.9,0,5.8,1.8,5.8,5.4c0,0.8-0.1,1.4-0.3,2.6l-0.5,2.7
		c-0.9,5.1-3.2,7.4-7.4,7.4c-2.5,0-4.1-0.8-5.1-2.5l-1.8,10.1h-2.1L132.8,562.5z M143.2,570c0.1-0.7,0.2-1.4,0.2-2c0-2.7-1.3-4-4-4
		c-3.2,0-5.1,2-5.8,6l-0.5,2.6c-0.1,0.9-0.2,1.4-0.2,1.9c0,2.6,1.4,4,4.2,4c3.1,0,5-1.9,5.7-6L143.2,570z"/>
	<path class="st0" d="M153.8,572.5c-0.1,0.5-0.1,1.1-0.1,1.7c0,2.9,1.6,4.4,4.6,4.4c1.9,0,3.1-0.5,4.3-1.7l1.4,1.2
		c-1.4,1.6-3.2,2.3-5.8,2.3c-4.4,0-6.6-2-6.6-5.8c0-0.8,0.1-1.7,0.3-2.7l0.3-1.6c0.9-5.5,3.4-8,8-8c4,0,6.1,1.9,6.1,5.7
		c0,1.1-0.1,2.5-0.4,3.7H154L153.8,572.5z M164,569.9c0.1-0.6,0.1-1.2,0.1-1.9c0-2.7-1.3-4.1-4-4.1c-3.1,0-5.2,2.1-5.8,5.8l0,0.2
		H164z"/>
	<path class="st0" d="M174.5,562.5h1.7l-0.2,2.3c1.3-1.8,2.7-2.6,4.8-2.6c1.2,0,2.1,0.2,3.2,0.8l-1.2,1.8c-0.8-0.6-1.5-0.8-2.4-0.8
		c-2.9,0-4.4,2.2-5.3,7.4l-1.5,8.6h-2.1L174.5,562.5z"/>
	<path class="st0" d="M199.2,554.9h14.2l-0.3,1.9h-12l-1.8,9.8h10.3l-0.3,1.9H199l-2,11.6h-2.2L199.2,554.9z"/>
	<path class="st0" d="M217.9,562.5h1.7l-0.2,2.3c1.3-1.8,2.7-2.6,4.8-2.6c1.2,0,2.1,0.2,3.2,0.8l-1.2,1.8c-0.8-0.6-1.5-0.8-2.4-0.8
		c-2.9,0-4.4,2.2-5.3,7.4l-1.5,8.6h-2.1L217.9,562.5z"/>
	<path class="st0" d="M232.2,562.5h2.1l-3.1,17.5h-2.1L232.2,562.5z M233.6,554.8h2.1l-0.6,3.4H233L233.6,554.8z"/>
	<path class="st0" d="M242.1,572.5c-0.1,0.5-0.1,1.1-0.1,1.7c0,2.9,1.6,4.4,4.6,4.4c1.9,0,3.1-0.5,4.3-1.7l1.4,1.2
		c-1.4,1.6-3.2,2.3-5.8,2.3c-4.4,0-6.6-2-6.6-5.8c0-0.8,0.1-1.7,0.3-2.7l0.3-1.6c0.9-5.5,3.4-8,8-8c4,0,6.1,1.9,6.1,5.7
		c0,1.1-0.1,2.5-0.4,3.7h-11.8L242.1,572.5z M252.3,569.9c0.1-0.6,0.1-1.2,0.1-1.9c0-2.7-1.3-4.1-4-4.1c-3.1,0-5.2,2.1-5.8,5.8
		l0,0.2H252.3z"/>
	<path class="st0" d="M262.8,562.5h1.7l-0.2,2.2c1.3-1.8,3-2.5,5.5-2.5c3.5,0,5.4,1.7,5.4,4.7c0,0.8-0.1,2-0.4,3.2L273,580h-2.1
		l1.7-9.9c0.2-1.1,0.3-1.7,0.3-2.4c0-2.4-1.3-3.6-3.6-3.6c-3.3,0-5,2-5.9,7.1l-1.5,8.8h-2.1L262.8,562.5z"/>
	<path class="st0" d="M292.6,577.9l-0.2,0.2c-1.4,1.7-2.9,2.3-5.2,2.3c-3.8,0-5.8-1.8-5.8-5.3c0-0.7,0.1-1.8,0.3-2.7l0.5-2.7
		c0.9-5.1,3.2-7.4,7.4-7.4c1.8,0,3.3,0.5,4.3,1.3c0.3,0.3,0.4,0.4,0.9,1.2l1.8-9.8h2.1l-4.4,25.1h-1.7L292.6,577.9z M283.7,572.5
		c-0.1,0.6-0.2,1.5-0.2,2.1c0,2.6,1.4,3.9,4,3.9c3.2,0,5.1-2,5.8-6l0.5-2.6c0.1-0.6,0.2-1.4,0.2-2c0-2.7-1.4-4-4.2-4
		c-3.1,0-4.9,1.9-5.6,6.1L283.7,572.5z"/>
	<path class="st0" d="M308.6,554.9l-3.5,20c-0.1,0.8-0.2,1.1-0.2,1.5c0,1.4,0.7,1.9,2.7,1.9h0.8l-0.3,1.8h-1c-3.2,0-4.4-0.8-4.4-3
		c0-0.6,0.1-1.3,0.3-2.4l3.4-19.7H308.6z"/>
	<path class="st0" d="M314.3,562.5h2l3,15.2l7.7-15.2h2.2l-10.9,20.9c-2.1,3.9-3.2,4.6-7.2,4.6l0.3-1.8c2.6,0,3.3-0.5,4.8-3.1
		l1.6-3.1L314.3,562.5z"/>
	<path class="st0" d="M15.6,603.6c0.6-3.6,1.4-5.2,3.1-6.9c1.8-1.8,3.9-2.5,6.8-2.5c4.9,0,7.7,2.5,7.7,6.8c0,0.8-0.1,1.9-0.4,3.3
		l-1.1,6.3c-0.6,3.5-1.4,5.3-3.1,6.9c-1.8,1.8-3.9,2.5-6.7,2.5c-2.7,0-4.5-0.6-5.8-1.9c-1.3-1.2-1.9-2.8-1.9-4.8
		c0-0.8,0.1-2.1,0.4-3.4L15.6,603.6z M30.6,604.2c0.2-1.2,0.3-2.2,0.3-3c0-3.3-2-5.2-5.5-5.2c-2.4,0-4.1,0.8-5.5,2.5
		c-1.2,1.4-1.7,2.8-2.2,5.6l-1,5.8c-0.2,1-0.3,2.3-0.3,3c0,3.3,2,5.2,5.5,5.2c2.4,0,4.1-0.8,5.5-2.5c1.1-1.4,1.7-2.8,2.2-5.7
		L30.6,604.2z"/>
	<path class="st0" d="M41.1,602.2h1.7l-0.1,2c1.4-1.7,3-2.4,5.4-2.4c3.9,0,5.8,1.8,5.8,5.4c0,0.8-0.1,1.4-0.3,2.6l-0.5,2.7
		c-0.9,5.1-3.2,7.4-7.4,7.4c-2.5,0-4.1-0.8-5.1-2.5l-1.8,10.1h-2.1L41.1,602.2z M51.5,609.6c0.1-0.7,0.2-1.4,0.2-2c0-2.7-1.3-4-4-4
		c-3.2,0-5.1,2-5.8,6l-0.5,2.6c-0.1,0.9-0.2,1.4-0.2,1.9c0,2.6,1.4,4,4.2,4c3.1,0,5-1.9,5.7-6L51.5,609.6z"/>
	<path class="st0" d="M62.1,612.1c-0.1,0.5-0.1,1.1-0.1,1.7c0,2.9,1.6,4.4,4.6,4.4c1.9,0,3.1-0.5,4.3-1.7l1.4,1.2
		c-1.4,1.6-3.2,2.3-5.8,2.3c-4.4,0-6.6-2-6.6-5.8c0-0.8,0.1-1.7,0.3-2.7l0.3-1.6c0.9-5.5,3.4-8,8-8c4,0,6.1,1.9,6.1,5.7
		c0,1.1-0.1,2.5-0.4,3.7H62.3L62.1,612.1z M72.3,609.5c0.1-0.6,0.1-1.2,0.1-1.9c0-2.7-1.3-4.1-4-4.1c-3.1,0-5.2,2.1-5.8,5.8l0,0.2
		H72.3z"/>
	<path class="st0" d="M82.8,602.2h1.7l-0.2,2.2c1.3-1.8,3-2.5,5.5-2.5c3.5,0,5.4,1.7,5.4,4.7c0,0.8-0.1,2-0.4,3.2l-1.7,9.9H91
		l1.7-9.9c0.2-1.1,0.3-1.7,0.3-2.4c0-2.4-1.3-3.6-3.6-3.6c-3.3,0-5,2-5.9,7.1l-1.5,8.8h-2.1L82.8,602.2z"/>
	<path class="st0" d="M114.4,594.5h7.5c2.6,0,4.3,0.5,5.5,1.4c1.5,1.2,2.4,3,2.4,5.1c0,0.8-0.1,2-0.4,3.3l-1.1,6.1
		c-0.9,6-4.5,9.3-10.2,9.2H110L114.4,594.5z M117.8,617.8c4.8,0.1,7.6-2.5,8.5-7.9l1-5.7c0.2-1,0.3-2.2,0.3-2.9c0-1.6-0.7-3.1-1.8-4
		c-0.9-0.7-2.2-1-4.2-1h-5.3l-3.8,21.5H117.8z"/>
	<path class="st0" d="M146.5,608.1c0.2-1.1,0.2-1.2,0.2-1.6c0-1.9-1.2-2.9-3.6-2.9c-1.9,0-3.4,0.6-4.8,1.8l-1.3-1.1
		c1.6-1.6,3.7-2.4,6.2-2.4c3.6,0,5.6,1.5,5.6,4.3c0,0.6-0.1,1.1-0.3,2.5l-1.9,11h-1.7l0-1c-1.2,1-2.5,1.3-5.1,1.3
		c-4,0-5.8-1.1-5.8-3.7c0-2,0.6-3.8,1.5-4.9c1.1-1.2,3-1.8,5.9-1.8h4.9L146.5,608.1z M141.6,611.2c-2.1,0-3.5,0.4-4.4,1.3
		c-0.7,0.7-1.1,2-1.1,3.4c0,1.7,1.1,2.3,4.1,2.3c2.1,0,3.4-0.4,4.3-1.3c0.5-0.5,0.7-1.1,1-2.5l0.6-3.2H141.6z"/>
	<path class="st0" d="M155.7,603.9l0.3-1.8h2.2l1.1-5.8h2l-1,5.8h3.4l-0.3,1.8h-3.4l-1.9,10.7c-0.1,0.6-0.1,1-0.1,1.4
		c0,1.4,0.7,1.9,2.5,1.9h0.7l-0.3,1.8h-0.5c-3.3,0-4.5-0.8-4.5-3c0-0.6,0.1-1.4,0.2-2.4l1.8-10.3H155.7z"/>
	<path class="st0" d="M179.2,608.1c0.2-1.1,0.2-1.2,0.2-1.6c0-1.9-1.2-2.9-3.6-2.9c-1.9,0-3.4,0.6-4.8,1.8l-1.3-1.1
		c1.6-1.6,3.7-2.4,6.2-2.4c3.6,0,5.6,1.5,5.6,4.3c0,0.6-0.1,1.1-0.3,2.5l-1.9,11h-1.7l0-1c-1.2,1-2.5,1.3-5.1,1.3
		c-4,0-5.8-1.1-5.8-3.7c0-2,0.6-3.8,1.5-4.9c1.1-1.2,3-1.8,5.9-1.8h4.9L179.2,608.1z M174.3,611.2c-2.1,0-3.5,0.4-4.4,1.3
		c-0.7,0.7-1.1,2-1.1,3.4c0,1.7,1.1,2.3,4.1,2.3c2.1,0,3.4-0.4,4.3-1.3c0.5-0.5,0.7-1.1,1-2.5l0.6-3.2H174.3z"/>
	<path class="st0" d="M197.9,603.6c0.7-3.6,1.4-5.3,3.1-6.9c1.9-1.7,3.9-2.5,7.1-2.5c5.2,0,8.1,2.4,8.1,6.8c0,0.9-0.1,1.9-0.4,3.5
		l-1.1,6.1c-0.6,3.6-1.4,5.3-3.1,6.9c-1.8,1.7-3.9,2.5-7,2.5c-3,0-4.9-0.6-6.3-1.9c-1.3-1.2-1.9-2.8-1.9-4.9c0-0.9,0.1-2.2,0.4-3.6
		L197.9,603.6z M212.1,604.4c0.3-1.4,0.4-2.1,0.4-2.9c0-2.7-1.5-4.2-4.5-4.2c-2.1,0-3.5,0.7-4.6,2.2c-0.9,1.2-1.3,2.4-1.8,4.9
		l-1,5.4c-0.2,1.2-0.3,2.1-0.3,2.9c0,2.7,1.5,4.2,4.5,4.2c3.7,0,5.6-2.1,6.4-7.1L212.1,604.4z"/>
	<path class="st0" d="M223.4,601.8h2.8l0.1,1.4c1.4-1.3,2.6-1.7,4.7-1.7c4.1,0,6,1.7,6,5.4c0,0.9-0.1,1.9-0.3,3l-0.5,2.6
		c-0.9,5.3-3.1,7.5-7.5,7.5c-2,0-3.4-0.5-4.7-1.7l-1.6,9.3h-3.6L223.4,601.8z M233.2,609.6c0.1-0.7,0.2-1.4,0.2-2
		c0-2.2-1-3.3-3.1-3.3c-2.6,0-4,1.5-4.6,4.8l-0.6,3.2c-0.1,0.8-0.2,1.2-0.2,1.6c0,2.1,1.1,3.2,3.2,3.2c2.6,0,4-1.7,4.6-5.3
		L233.2,609.6z"/>
	<path class="st0" d="M242.6,604.6l0.5-2.9h2.2l1.2-5.5h3.3l-0.9,5.5h3.5l-0.5,2.9h-3.5l-1.5,8.3c-0.2,1.4-0.2,1.4-0.2,1.8
		c0,1.4,0.6,1.9,2.6,1.9h0.6l-0.5,3h-0.5c-4.3,0-5.8-1-5.8-3.7c0-0.9,0.1-1.8,0.4-3.4l1.4-7.8H242.6z"/>
	<path class="st0" d="M258.1,601.8h3.6l-3.1,17.9h-3.6L258.1,601.8z M259.4,594.3h3.6l-0.7,4.1h-3.6L259.4,594.3z"/>
	<path class="st0" d="M268.8,601.8h2.7v1.6c1.2-1.4,2.6-2,4.7-2c2.4,0,4,0.8,4.9,2.5c1.1-1.7,2.8-2.5,5.2-2.5c3.5,0,5.4,1.7,5.4,4.7
		c0,0.9-0.1,2.2-0.4,3.6l-1.8,9.9H286l1.7-9.9c0.2-0.9,0.2-1.7,0.2-2.4c0-1.9-0.9-2.9-2.6-2.9c-2.4,0-3.6,1.7-4.4,5.9l-1.6,9.2h-3.6
		l1.7-9.9c0.2-1.3,0.3-1.7,0.3-2.3c0-2-0.8-3-2.6-3c-2.4,0-3.7,1.7-4.4,6l-1.6,9.2h-3.6L268.8,601.8z"/>
	<path class="st0" d="M299.7,601.8h3.6l-3.1,17.9h-3.6L299.7,601.8z M301,594.3h3.6l-0.7,4.1h-3.6L301,594.3z"/>
	<path class="st0" d="M306.2,617.4l10.7-12.7h-7.8l0.5-2.9h12.2l-0.4,2.3l-10.7,12.7h9l-0.5,2.9h-13.5L306.2,617.4z"/>
	<path class="st0" d="M336.9,608c0.1-0.4,0.1-1.1,0.1-1.4c0-1.5-1-2.3-3-2.3c-1.6,0-3.1,0.6-4.3,1.8l-2.1-1.8c1.8-2,3.8-2.9,6.7-2.9
		c4.1,0,6.2,1.6,6.2,4.6c0,0.7-0.1,1.8-0.3,3l-1.9,10.6h-2.8l-0.1-0.8c-1.2,0.9-2.4,1.2-4.7,1.2c-4,0-5.9-1.3-5.9-4.1
		c0-2.1,0.6-4,1.6-5.1c1.1-1.2,2.9-1.7,5.8-1.7h4.4L336.9,608z M332.8,611.5c-1.7,0-2.7,0.3-3.4,1c-0.6,0.6-1,1.7-1,2.8
		c0,1.4,0.9,1.9,3.2,1.9c1.7,0,2.7-0.4,3.4-1.1c0.4-0.5,0.6-1,0.8-2.3l0.4-2.4H332.8z"/>
	<path class="st0" d="M346.5,604.6l0.5-2.9h2.2l1.2-5.5h3.3l-0.9,5.5h3.5l-0.5,2.9h-3.5l-1.5,8.3c-0.2,1.4-0.2,1.4-0.2,1.8
		c0,1.4,0.6,1.9,2.6,1.9h0.6l-0.5,3h-0.5c-4.3,0-5.8-1-5.8-3.7c0-0.9,0.1-1.8,0.4-3.4l1.4-7.8H346.5z"/>
	<path class="st0" d="M361.9,601.8h3.6l-3.1,17.9h-3.6L361.9,601.8z M363.3,594.3h3.6l-0.7,4.1h-3.6L363.3,594.3z"/>
	<path class="st0" d="M370.8,608.9c0.9-5.3,3.3-7.5,8.3-7.5c4.6,0,6.9,1.8,6.9,5.6c0,0.8-0.1,1.8-0.3,2.9l-0.5,2.7
		c-0.9,5.3-3.4,7.5-8.3,7.5c-4.6,0-6.9-1.8-6.9-5.6c0-0.8,0.1-1.8,0.3-2.8L370.8,608.9z M382.2,609.6c0.1-0.8,0.2-1.5,0.2-2.1
		c0-2.1-1.1-3.2-3.4-3.2c-2.7,0-4.1,1.5-4.8,5.3l-0.4,2.3c-0.1,0.8-0.2,1.4-0.2,2c0,2.2,1.1,3.2,3.4,3.2c2.7,0,4.1-1.5,4.8-5.3
		L382.2,609.6z"/>
	<path class="st0" d="M393.6,601.8h2.7v1.7c1.3-1.4,2.8-2,5.1-2c3.6,0,5.5,1.7,5.5,4.8c0,0.9-0.1,2.1-0.4,3.5l-1.7,9.9h-3.6l1.7-9.9
		c0.2-1,0.2-1.6,0.2-2.3c0-2-1-3.1-2.9-3.1c-2.7,0-4,1.7-4.8,6l-1.6,9.1h-3.6L393.6,601.8z"/>
	<path class="st0" d="M423.7,619.6h-2.2l4.4-25.1h7.6c2.7,0,4.2,0.4,5.4,1.5c1,1,1.6,2.5,1.6,4.2c0,2.5-0.9,5.1-2.2,6.7
		c-1.6,1.9-3.6,2.6-6.8,2.6h-6.1L423.7,619.6z M431.5,607.7c2.3,0,3.8-0.6,5-2c1.1-1.3,1.8-3.3,1.8-5.3c0-2.8-1.5-4.1-4.8-4.1h-5.8
		l-2,11.4H431.5z"/>
	<path class="st0" d="M446.8,602.2h1.7l-0.2,2.3c1.3-1.8,2.7-2.6,4.8-2.6c1.2,0,2.1,0.2,3.2,0.8l-1.2,1.8c-0.8-0.6-1.5-0.8-2.4-0.8
		c-2.9,0-4.4,2.2-5.3,7.4l-1.5,8.6h-2.1L446.8,602.2z"/>
	<path class="st0" d="M459.3,609.2c0.9-5.1,3.4-7.4,8-7.4c4.2,0,6.3,1.8,6.3,5.4c0,0.7-0.1,1.7-0.3,2.6l-0.5,2.7
		c-0.9,5.1-3.4,7.4-7.9,7.4c-4.2,0-6.4-1.8-6.4-5.5c0-0.8,0.1-1.6,0.2-2.5L459.3,609.2z M471.2,609.6c0.1-0.9,0.2-1.5,0.2-2.1
		c0-2.6-1.5-4-4.3-4c-3.3,0-5.2,1.9-5.9,6.1l-0.4,2.5c-0.2,0.8-0.2,1.3-0.2,1.9c0,2.7,1.4,4,4.3,4c3.3,0,5.1-1.9,5.8-6L471.2,609.6z
		"/>
	<path class="st0" d="M484.3,602.2l-3.2,18.4c-0.8,5.5-2.7,7.3-7.8,7.2l0.3-1.8c3.2,0.2,4.8-1.4,5.3-5.2l3.3-18.5H484.3z
		 M483.6,594.4h2.1l-0.6,3.4H483L483.6,594.4z"/>
	<path class="st0" d="M492.1,612.1c-0.1,0.5-0.1,1.1-0.1,1.7c0,2.9,1.6,4.4,4.6,4.4c1.9,0,3.1-0.5,4.3-1.7l1.4,1.2
		c-1.4,1.6-3.2,2.3-5.8,2.3c-4.4,0-6.6-2-6.6-5.8c0-0.8,0.1-1.7,0.3-2.7l0.3-1.6c0.9-5.5,3.4-8,8-8c4,0,6.1,1.9,6.1,5.7
		c0,1.1-0.1,2.5-0.4,3.7h-11.8L492.1,612.1z M502.3,609.5c0.1-0.6,0.1-1.2,0.1-1.9c0-2.7-1.3-4.1-4-4.1c-3.1,0-5.2,2.1-5.8,5.8
		l0,0.2H502.3z"/>
	<path class="st0" d="M522.2,617.6c-1.4,1.6-3.3,2.3-5.7,2.3c-3.9,0-6.1-2-6.1-5.7c0-0.8,0.1-1.8,0.2-2.7l0.3-1.6
		c0.5-2.9,1.1-4.4,2.3-5.8c1.3-1.5,3.2-2.3,5.6-2.3c2.7,0,4.5,0.9,5.3,2.7l-1.8,0.8c-0.8-1.3-1.8-1.8-3.5-1.8c-3.3,0-5.1,2-5.9,6.6
		l-0.3,1.8c-0.1,0.6-0.2,1.3-0.2,1.9c0,2.8,1.4,4.2,4.2,4.2c1.8,0,3-0.5,4.2-1.7L522.2,617.6z"/>
	<path class="st0" d="M529,603.9l0.3-1.8h2.2l1.1-5.8h2l-1,5.8h3.4l-0.3,1.8h-3.4l-1.9,10.7c-0.1,0.6-0.1,1-0.1,1.4
		c0,1.4,0.7,1.9,2.5,1.9h0.7l-0.3,1.8h-0.5c-3.3,0-4.5-0.8-4.5-3c0-0.6,0.1-1.4,0.2-2.4l1.8-10.3H529z"/>
</g>
<g>
</g>
<g>
</g>
<g>
</g>
<g>
</g>
<g>
</g>
<g>
</g>
<g>
</g>
<g>
</g>
<g>
</g>
<g>
</g>
<g>
</g>
<g>
</g>
<g>
</g>
<g>
</g>
<g>
</g>
</svg>
