<?xml version="1.0" encoding="utf-8"?>
<!-- Generator: Adobe Illustrator 22.0.1, SVG Export Plug-In . SVG Version: 6.00 Build 0)  -->
<svg version="1.1" id="レイヤー_1" xmlns="http://www.w3.org/2000/svg" xmlns:xlink="http://www.w3.org/1999/xlink" x="0px"
	 y="0px" width="542px" height="164.4px" viewBox="0 0 542 164.4" style="enable-background:new 0 0 542 164.4;"
	 xml:space="preserve">
<style type="text/css">
	.st0{fill:#FFFFFF;}
</style>
<g>
	<path class="st0" d="M122,151.3c0,0.5-0.1,0.8-0.2,1.1c-0.1,0.2-0.4,0.4-0.8,0.4c-0.4,0-0.8-0.1-1.4-0.3l-0.2,1.4
		c0.7,0.3,1.4,0.5,2.2,0.5c0.3,0,0.5,0,0.7-0.1c0.2,0,0.4-0.1,0.6-0.2c0.2-0.1,0.3-0.2,0.4-0.3c0.1-0.1,0.2-0.3,0.3-0.5
		c0.1-0.2,0.1-0.4,0.2-0.6c0-0.2,0.1-0.4,0.1-0.7c0-0.3,0-0.6,0-0.8c0-0.2,0-0.5,0-0.9v-9.6H122V151.3z"/>
	<path class="st0" d="M137,148.5c0-0.2-0.1-0.4-0.2-0.6c-0.1-0.2-0.2-0.3-0.3-0.5c-0.1-0.1-0.2-0.2-0.4-0.3
		c-0.2-0.1-0.3-0.2-0.4-0.3c-0.1-0.1-0.3-0.1-0.6-0.2c-0.2-0.1-0.4-0.1-0.6-0.1s-0.4-0.1-0.7-0.1l-3.2-0.6c-0.5-0.1-0.7-0.4-0.7-1
		v-1.6c0-0.2,0-0.4,0.1-0.5c0-0.1,0.1-0.3,0.2-0.4c0.1-0.1,0.3-0.2,0.5-0.3c0.2-0.1,0.5-0.1,0.8-0.1s0.8,0,1.3,0
		c1,0,1.6,0.1,1.9,0.2c0.3,0.1,0.4,0.3,0.5,0.6c0,0.1,0.1,0.5,0.1,1.1l1.6-0.4c0-0.4,0-0.7-0.1-1c-0.1-0.3-0.1-0.6-0.2-0.8
		c-0.1-0.2-0.2-0.4-0.4-0.6c-0.2-0.2-0.4-0.3-0.6-0.4c-0.2-0.1-0.5-0.2-0.8-0.2s-0.7-0.1-1-0.1s-0.8,0-1.2,0c-0.6,0-1.1,0-1.5,0.1
		c-0.4,0-0.8,0.1-1.1,0.2c-0.3,0.1-0.6,0.3-0.8,0.4c-0.2,0.2-0.4,0.4-0.5,0.7s-0.2,0.6-0.3,1c-0.1,0.4-0.1,0.9-0.1,1.4
		c0,1,0.2,1.8,0.5,2.3c0.3,0.5,0.9,0.8,1.6,0.9l4.5,0.8c0.3,0.1,0.4,0.2,0.5,0.5c0.1,0.3,0.1,0.9,0.1,1.6c0,0.4,0,0.7,0,0.9
		c0,0.2-0.1,0.4-0.1,0.6c-0.1,0.2-0.2,0.4-0.3,0.4c-0.1,0.1-0.3,0.2-0.5,0.3c-0.2,0.1-0.5,0.1-0.8,0.1s-0.7,0-1.1,0
		c-0.6,0-1,0-1.3-0.1c-0.3,0-0.6-0.1-0.8-0.1s-0.4-0.2-0.5-0.4c-0.1-0.2-0.2-0.4-0.2-0.5s-0.1-0.4-0.1-0.8c0-0.2,0-0.4-0.1-0.6
		l-1.7,0.3c0,0.5,0.1,1,0.1,1.3c0,0.3,0.1,0.6,0.2,0.9s0.3,0.6,0.4,0.7c0.2,0.1,0.5,0.3,0.8,0.4c0.3,0.1,0.8,0.2,1.2,0.3
		c0.5,0,1.1,0.1,1.8,0.1c0.4,0,0.7,0,1,0c0.3,0,0.5,0,0.8,0c0.3,0,0.5-0.1,0.7-0.1c0.2,0,0.4-0.1,0.6-0.2c0.2-0.1,0.4-0.2,0.5-0.3
		c0.1-0.1,0.3-0.2,0.4-0.4c0.1-0.2,0.2-0.3,0.3-0.5c0.1-0.2,0.1-0.4,0.2-0.7s0.1-0.6,0.1-0.9c0-0.3,0-0.7,0-1.1c0-0.3,0-0.7,0-0.9
		S137,148.7,137,148.5z"/>
	<path class="st0" d="M150.9,142.7c-0.2-0.4-0.4-0.8-0.6-1.1s-0.6-0.5-1-0.7c-0.4-0.2-0.9-0.3-1.4-0.4s-1.1-0.1-1.9-0.1
		c-0.8,0-1.4,0-2,0.1c-0.5,0.1-1,0.2-1.4,0.4c-0.4,0.2-0.7,0.5-0.9,0.7c-0.2,0.3-0.4,0.7-0.6,1.2c-0.1,0.5-0.2,1.1-0.3,1.6
		c0,0.6-0.1,1.3-0.1,2.2c0,0.7,0,1.3,0,1.7c0,0.4,0,0.9,0,1.4s0.1,1,0.1,1.2s0.1,0.6,0.2,0.9s0.2,0.6,0.3,0.8
		c0.1,0.2,0.3,0.3,0.5,0.6c0.2,0.2,0.4,0.4,0.7,0.4c0.2,0.1,0.5,0.2,0.9,0.3s0.7,0.2,1.1,0.2c0.4,0,0.9,0,1.4,0c0.8,0,1.4,0,1.9-0.1
		c1.1-0.1,1.9-0.5,2.4-1c0.4-0.5,0.7-1.4,0.8-2.6c0.1-0.7,0.1-2.2,0.1-4.4c0-0.8,0-1.5-0.1-2C151.1,143.6,151,143.1,150.9,142.7z
		 M149.4,148.6c0,0.2,0,0.5,0,0.8c0,0.3,0,0.6,0,0.8c0,0.2,0,0.4-0.1,0.7s-0.1,0.5-0.1,0.6c0,0.2-0.1,0.3-0.2,0.5s-0.1,0.3-0.2,0.4
		c-0.1,0.1-0.2,0.2-0.3,0.2c-0.3,0.2-1.1,0.3-2.4,0.3c-1.3,0-2.1-0.1-2.4-0.3c-0.4-0.1-0.7-0.7-0.8-1.6c-0.1-0.6-0.1-1.8-0.1-3.5
		c0-1.1,0-2.2,0-3.4c0-0.4,0-0.6,0.1-0.9c0-0.2,0.1-0.4,0.2-0.6c0.1-0.2,0.2-0.4,0.3-0.4c0.1-0.1,0.3-0.2,0.6-0.3
		c0.3-0.1,0.6-0.1,0.9-0.2s0.8,0,1.3,0c0.5,0,0.9,0,1.3,0c0.3,0,0.6,0.1,0.9,0.2c0.3,0.1,0.5,0.2,0.6,0.3c0.1,0.1,0.3,0.2,0.3,0.4
		c0.1,0.2,0.1,0.4,0.2,0.6c0,0.2,0,0.5,0.1,0.9c0,1.2,0,2.4,0,3.6C149.4,148.2,149.4,148.4,149.4,148.6z"/>
	<polygon class="st0" points="163.8,151.4 157.3,140.6 155.5,140.6 155.5,154.1 157.1,154.1 157.1,143.5 163.5,154.1 165.4,154.1 
		165.4,140.6 163.8,140.6 	"/>
	<rect x="169.8" y="144.2" class="st0" width="1.8" height="9.9"/>
	<rect x="169.8" y="140.4" class="st0" width="1.8" height="1.6"/>
	<polygon class="st0" points="181.7,145.4 181.6,144.2 175.6,144.2 175.7,145.4 179.9,145.4 175.3,152.8 175.4,154.1 181.7,154.1 
		181.7,152.9 177.1,152.9 	"/>
	<path class="st0" d="M193,149c0-0.6,0-1.1,0-1.4c0-0.4,0-0.8-0.1-1.1c0-0.4-0.1-0.7-0.2-0.9s-0.2-0.4-0.3-0.7s-0.3-0.4-0.5-0.5
		c-0.2-0.1-0.4-0.2-0.7-0.3c-0.3-0.1-0.6-0.1-0.9-0.2c-0.3,0-0.7,0-1.2,0c-0.7,0-1.2,0-1.7,0.1c-0.4,0.1-0.8,0.2-1.1,0.3
		c-0.3,0.2-0.6,0.4-0.7,0.6c-0.2,0.2-0.3,0.5-0.4,1c-0.1,0.5-0.2,0.9-0.2,1.4c0,0.5,0,1.1,0,1.9c0,0.6,0,1.1,0,1.4s0,0.7,0.1,1.1
		c0.1,0.4,0.1,0.7,0.3,0.9c0.1,0.2,0.3,0.4,0.5,0.7c0.2,0.2,0.5,0.4,0.8,0.5s0.7,0.2,1.1,0.3c0.4,0.1,1,0.1,1.6,0.1
		c0.5,0,0.9,0,1.2,0c0.3,0,0.6-0.1,0.9-0.2c0.3-0.1,0.5-0.2,0.6-0.3c0.2-0.1,0.3-0.3,0.4-0.5c0.1-0.2,0.2-0.5,0.2-0.8
		c0-0.3,0.1-0.6,0.1-1.1l-1.4-0.3c0,0.1,0,0.3,0,0.5c0,0.2,0,0.3,0,0.4c0,0.1,0,0.2-0.1,0.3c0,0.1-0.1,0.2-0.2,0.3
		c-0.1,0.1-0.2,0.1-0.4,0.2c-0.2,0.1-0.4,0.1-0.6,0.1c-0.2,0-0.5,0-0.9,0c-0.9,0-1.5-0.1-1.8-0.2c-0.3-0.1-0.5-0.4-0.5-0.8
		c0-1-0.1-2-0.1-2.9h4.9C191.8,149.1,192.3,149.1,193,149z M186.7,148.2c0-0.1,0-0.2,0-0.5s0-0.4,0-0.5c0-0.1,0-0.3,0-0.5
		c0-0.2,0-0.4,0.1-0.5c0-0.1,0.1-0.3,0.1-0.4c0-0.1,0.1-0.2,0.2-0.3c0.1-0.1,0.2-0.1,0.3-0.2c0.2-0.1,0.8-0.1,1.6-0.1
		c0.8,0,1.3,0.1,1.6,0.2c0.3,0.1,0.5,0.4,0.5,0.7c0,0.6,0.1,1.3,0.1,2.1H186.7z"/>
	<path class="st0" d="M203,145.2c-0.2-0.5-0.5-0.8-0.9-1s-1-0.3-1.8-0.3c-0.4,0-0.8,0-1.1,0.1s-0.6,0.1-0.8,0.2s-0.5,0.2-0.6,0.4
		s-0.3,0.3-0.5,0.5s-0.2,0.5-0.3,0.7c-0.1,0.2-0.1,0.5-0.2,0.9c0,0.3-0.1,0.7-0.1,1.1c0,0.4,0,0.8,0,1.3c0,0.5,0,0.9,0,1.2
		c0,0.3,0,0.6,0.1,1s0.1,0.7,0.1,0.9c0.1,0.2,0.2,0.5,0.3,0.7c0.1,0.3,0.3,0.5,0.4,0.6s0.4,0.3,0.6,0.4c0.2,0.1,0.5,0.2,0.8,0.3
		c0.3,0.1,0.7,0.1,1.1,0.1c1.6,0,2.5-0.5,2.9-1.4l0.2,1.2h1.6v-13.9l-1.8,0.1V145.2z M203,151.8c0,0.5-0.2,0.8-0.6,0.9
		c-0.3,0.2-0.9,0.3-1.8,0.3c-0.9,0-1.4-0.1-1.7-0.2c-0.3-0.1-0.5-0.4-0.5-0.8c0-1.8-0.1-3.3-0.1-4.3c0-0.7,0-1.3,0.1-1.7
		c0.1-0.4,0.3-0.7,0.6-0.7c0.3-0.1,0.9-0.2,1.6-0.2c0.9,0,1.5,0.1,1.8,0.3s0.5,0.6,0.5,1.1V151.8z"/>
	<path class="st0" d="M216,151.3c0,0.5-0.1,0.8-0.2,1.1c-0.1,0.2-0.4,0.4-0.8,0.4c-0.4,0-0.8-0.1-1.4-0.3l-0.2,1.4
		c0.7,0.3,1.4,0.5,2.2,0.5c0.3,0,0.5,0,0.7-0.1c0.2,0,0.4-0.1,0.6-0.2c0.2-0.1,0.3-0.2,0.4-0.3c0.1-0.1,0.2-0.3,0.3-0.5
		c0.1-0.2,0.1-0.4,0.2-0.6c0-0.2,0.1-0.4,0.1-0.7c0-0.3,0-0.6,0-0.8c0-0.2,0-0.5,0-0.9v-9.6H216V151.3z"/>
	<path class="st0" d="M228.7,144.7c-0.3-0.3-0.7-0.5-1.1-0.6c-0.5-0.1-1-0.2-1.8-0.2c-0.5,0-0.9,0-1.2,0c-0.3,0-0.6,0.1-1,0.2
		s-0.6,0.2-0.8,0.4s-0.3,0.4-0.5,0.7c-0.1,0.3-0.2,0.6-0.2,1c0,0.2,0,0.3,0,0.4l1.4,0.1c0-0.1,0-0.2,0-0.3c0-0.3,0-0.5,0-0.6
		c0-0.1,0.1-0.2,0.2-0.3c0.1-0.1,0.3-0.2,0.6-0.2c0.3,0,0.6,0,1.2,0c0.7,0,1.3,0.1,1.5,0.2s0.4,0.3,0.4,0.6v2.7c-0.6,0-1,0-1.5,0
		c-0.4,0-0.8,0-1.3,0.1c-0.4,0-0.8,0.1-1.1,0.2c-0.3,0.1-0.6,0.2-0.9,0.3c-0.3,0.1-0.5,0.3-0.7,0.4c-0.2,0.2-0.3,0.3-0.4,0.6
		c-0.1,0.2-0.1,0.5-0.1,0.8c0,0.6,0,1.1,0.1,1.6c0.1,0.4,0.2,0.7,0.5,1c0.2,0.3,0.5,0.5,0.9,0.6c0.4,0.1,0.9,0.2,1.5,0.2
		c0.9,0,1.6-0.1,2.1-0.3c0.5-0.2,0.8-0.6,1-1.2l0.3,1.4h1.4v-6.6c0-0.7-0.1-1.3-0.2-1.8C229.2,145.3,229,145,228.7,144.7z
		 M227.7,151.3c0,0.4-0.1,0.7-0.3,0.9c-0.2,0.2-0.4,0.4-0.9,0.6s-0.9,0.2-1.6,0.2c-0.8,0-1.2-0.1-1.4-0.3c-0.2-0.2-0.2-0.8-0.2-1.7
		c0,0,0,0,0-0.1c0-0.3,0.1-0.5,0.3-0.7c0.2-0.2,0.6-0.3,1.3-0.4s1.6-0.1,2.7-0.1V151.3z"/>
	<path class="st0" d="M241.8,147.2c0-0.3-0.1-0.6-0.1-0.8c0-0.2-0.1-0.5-0.2-0.7c-0.1-0.2-0.1-0.4-0.2-0.6c-0.1-0.2-0.2-0.3-0.3-0.4
		c-0.1-0.1-0.3-0.3-0.4-0.3c-0.2-0.1-0.4-0.2-0.6-0.2s-0.5-0.1-0.7-0.1c-0.3,0-0.6,0-0.9,0c-1.6,0-2.5,0.5-2.9,1.4l-0.2-1.1h-1.6
		v13.4l1.8-0.1v-4.3c0.2,0.7,1.1,1.1,2.7,1.1c0.5,0,0.9,0,1.2-0.1c0.3-0.1,0.7-0.2,0.9-0.3c0.3-0.1,0.5-0.3,0.7-0.5s0.3-0.4,0.4-0.7
		c0.1-0.2,0.2-0.6,0.3-0.9c0.1-0.4,0.1-0.8,0.1-1.1c0-0.4,0-0.9,0-1.4c0-0.4,0-0.8,0-1.1S241.8,147.5,241.8,147.2z M239.6,152.8
		c-0.3,0.1-0.9,0.2-1.8,0.2c-0.6,0-1.1-0.1-1.5-0.2s-0.6-0.3-0.7-0.5s-0.2-0.5-0.2-0.9c0-0.1,0-0.4,0-0.7c0-0.3,0-0.6,0-0.8
		s0-0.6,0-1s0-0.8,0-1.1c0-1.2,0.1-1.9,0.3-2.2c0.3-0.3,1-0.5,2.1-0.5c0.9,0,1.4,0.1,1.7,0.2c0.3,0.1,0.5,0.4,0.5,0.8
		c0,0.4,0,1.2,0.1,2.4c0,0.1,0,0.4,0,0.8c0,0.4,0,0.7,0,0.9C240.1,151.8,239.9,152.6,239.6,152.8z"/>
	<path class="st0" d="M252.3,144.7c-0.3-0.3-0.7-0.5-1.1-0.6c-0.5-0.1-1-0.2-1.8-0.2c-0.5,0-0.9,0-1.2,0c-0.3,0-0.6,0.1-1,0.2
		s-0.6,0.2-0.8,0.4s-0.3,0.4-0.5,0.7c-0.1,0.3-0.2,0.6-0.2,1c0,0.2,0,0.3,0,0.4l1.4,0.1c0-0.1,0-0.2,0-0.3c0-0.3,0-0.5,0-0.6
		c0-0.1,0.1-0.2,0.2-0.3c0.1-0.1,0.3-0.2,0.6-0.2c0.3,0,0.6,0,1.2,0c0.7,0,1.3,0.1,1.5,0.2s0.4,0.3,0.4,0.6v2.7c-0.6,0-1,0-1.5,0
		c-0.4,0-0.8,0-1.3,0.1c-0.4,0-0.8,0.1-1.1,0.2c-0.3,0.1-0.6,0.2-0.9,0.3c-0.3,0.1-0.5,0.3-0.7,0.4s-0.3,0.3-0.4,0.6
		c-0.1,0.2-0.1,0.5-0.1,0.8c0,0.6,0,1.1,0.1,1.6c0.1,0.4,0.2,0.7,0.5,1c0.2,0.3,0.5,0.5,0.9,0.6c0.4,0.1,0.9,0.2,1.5,0.2
		c0.9,0,1.6-0.1,2.1-0.3c0.5-0.2,0.8-0.6,1-1.2l0.3,1.4h1.4v-6.6c0-0.7-0.1-1.3-0.2-1.8C252.8,145.3,252.6,145,252.3,144.7z
		 M251.3,151.3c0,0.4-0.1,0.7-0.3,0.9c-0.2,0.2-0.4,0.4-0.9,0.6s-0.9,0.2-1.6,0.2c-0.8,0-1.2-0.1-1.4-0.3c-0.2-0.2-0.2-0.8-0.2-1.7
		c0,0,0,0,0-0.1c0-0.3,0.1-0.5,0.3-0.7c0.2-0.2,0.6-0.3,1.3-0.4s1.6-0.1,2.7-0.1V151.3z"/>
	<path class="st0" d="M265.1,146.5c0-0.3-0.1-0.6-0.2-0.8c-0.1-0.2-0.2-0.4-0.3-0.6s-0.2-0.4-0.4-0.5c-0.2-0.1-0.3-0.2-0.5-0.3
		s-0.5-0.2-0.7-0.2c-0.3,0-0.6-0.1-0.9-0.1c-0.7,0-1.4,0.1-1.9,0.3c-0.5,0.2-0.9,0.6-1,1.1l-0.2-1.1h-1.6v9.9h1.8v-5.3
		c0-0.2,0-0.6,0-0.9c0-0.4,0-0.7,0-0.8c0-0.3,0-0.5,0.1-0.7c0-0.2,0.1-0.4,0.2-0.5c0.1-0.2,0.3-0.3,0.5-0.4c0.2-0.1,0.5-0.2,0.8-0.2
		c0.3-0.1,0.7-0.1,1.2-0.1c0.2,0,0.4,0,0.5,0c0.1,0,0.3,0,0.4,0.1c0.1,0,0.2,0.1,0.3,0.1c0.1,0,0.1,0.1,0.2,0.2
		c0.1,0.1,0.1,0.2,0.1,0.4c0,0.1,0,0.3,0.1,0.5c0,0.2,0,0.5,0,0.7c0,0.2,0,0.5,0,0.9v6h1.8v-5.5c0-0.4,0-0.8,0-1.2
		C265.2,147.1,265.1,146.8,265.1,146.5z"/>
	<path class="st0" d="M277.2,149c0-0.6,0-1.1,0-1.4c0-0.4,0-0.8-0.1-1.1c0-0.4-0.1-0.7-0.2-0.9s-0.2-0.4-0.3-0.7s-0.3-0.4-0.5-0.5
		c-0.2-0.1-0.4-0.2-0.7-0.3c-0.3-0.1-0.6-0.1-0.9-0.2c-0.3,0-0.7,0-1.2,0c-0.7,0-1.2,0-1.7,0.1c-0.4,0.1-0.8,0.2-1.1,0.3
		c-0.3,0.2-0.6,0.4-0.7,0.6s-0.3,0.5-0.4,1c-0.1,0.5-0.2,0.9-0.2,1.4c0,0.5,0,1.1,0,1.9c0,0.6,0,1.1,0,1.4s0,0.7,0.1,1.1
		c0.1,0.4,0.1,0.7,0.3,0.9c0.1,0.2,0.3,0.4,0.5,0.7c0.2,0.2,0.5,0.4,0.8,0.5s0.7,0.2,1.1,0.3c0.4,0.1,1,0.1,1.6,0.1
		c0.5,0,0.9,0,1.2,0c0.3,0,0.6-0.1,0.9-0.2c0.3-0.1,0.5-0.2,0.6-0.3c0.2-0.1,0.3-0.3,0.4-0.5c0.1-0.2,0.2-0.5,0.2-0.8
		c0-0.3,0.1-0.6,0.1-1.1l-1.4-0.3c0,0.1,0,0.3,0,0.5c0,0.2,0,0.3,0,0.4c0,0.1,0,0.2-0.1,0.3c0,0.1-0.1,0.2-0.2,0.3
		c-0.1,0.1-0.2,0.1-0.4,0.2c-0.2,0.1-0.4,0.1-0.6,0.1c-0.2,0-0.5,0-0.9,0c-0.9,0-1.5-0.1-1.8-0.2c-0.3-0.1-0.5-0.4-0.5-0.8
		c0-1-0.1-2-0.1-2.9h4.9C276,149.1,276.5,149.1,277.2,149z M270.9,148.2c0-0.1,0-0.2,0-0.5s0-0.4,0-0.5c0-0.1,0-0.3,0-0.5
		c0-0.2,0-0.4,0.1-0.5c0-0.1,0.1-0.3,0.1-0.4c0-0.1,0.1-0.2,0.2-0.3c0.1-0.1,0.2-0.1,0.3-0.2c0.2-0.1,0.8-0.1,1.6-0.1
		c0.8,0,1.3,0.1,1.6,0.2c0.3,0.1,0.5,0.4,0.5,0.7c0,0.6,0.1,1.3,0.1,2.1H270.9z"/>
	<path class="st0" d="M288,149.6c-0.1-0.2-0.2-0.4-0.3-0.5c-0.1-0.1-0.3-0.3-0.4-0.4c-0.1-0.1-0.3-0.2-0.6-0.2
		c-0.3-0.1-0.5-0.1-0.8-0.2c-0.2,0-0.6-0.1-1-0.1c-0.1,0-0.1,0-0.2,0c-1-0.1-1.7-0.3-1.9-0.4c-0.2-0.1-0.4-0.4-0.4-0.8v-0.9
		c0-0.3,0.1-0.6,0.4-0.8c0.3-0.2,0.8-0.2,1.6-0.2c0.4,0,0.6,0,0.8,0c0.2,0,0.4,0,0.6,0.1c0.2,0,0.3,0.1,0.4,0.1
		c0.1,0,0.2,0.1,0.2,0.2c0.1,0.1,0.1,0.2,0.1,0.4c0,0.1,0,0.3,0.1,0.6l1.2-0.4c0-0.3,0-0.6-0.1-0.8s-0.1-0.4-0.2-0.6
		c-0.1-0.2-0.2-0.3-0.4-0.4s-0.3-0.2-0.5-0.3c-0.2-0.1-0.4-0.1-0.6-0.1c-0.3,0-0.5-0.1-0.7-0.1c-0.2,0-0.5,0-0.8,0
		c-0.5,0-1,0-1.4,0.1c-0.4,0-0.7,0.1-1,0.2c-0.3,0.1-0.5,0.3-0.7,0.5s-0.3,0.4-0.4,0.8s-0.1,0.7-0.1,1.1c0,0.4,0,0.8,0.1,1.1
		c0.1,0.3,0.1,0.5,0.3,0.8c0.1,0.2,0.3,0.4,0.4,0.5c0.2,0.1,0.4,0.2,0.7,0.3c0.3,0.1,0.6,0.2,0.8,0.2s0.6,0.1,1.1,0.1
		c0.1,0,0.3,0,0.6,0.1c0.2,0,0.4,0,0.6,0.1s0.3,0,0.5,0.1c0.2,0,0.3,0.1,0.4,0.2c0.1,0.1,0.2,0.2,0.3,0.3c0.1,0.1,0.1,0.3,0.1,0.4
		c0,1.2-0.1,1.8-0.4,2c-0.1,0.1-0.2,0.2-0.5,0.3c-0.2,0-0.6,0.1-1.1,0.1c-0.8,0-1.4,0-1.6-0.1c-0.3-0.1-0.6-0.2-0.7-0.5
		c-0.1-0.2-0.1-0.6-0.2-1.3l-1.4,0.4c0,0.3,0,0.6,0.1,0.9s0.1,0.5,0.2,0.7s0.2,0.3,0.3,0.5c0.1,0.1,0.3,0.2,0.5,0.3
		c0.2,0.1,0.4,0.2,0.6,0.2s0.4,0.1,0.7,0.1c0.3,0,0.6,0,0.8,0c0.2,0,0.5,0,0.9,0c0.6,0,1.2,0,1.6-0.1c0.4-0.1,0.8-0.2,1.1-0.5
		c0.3-0.2,0.5-0.5,0.6-0.9c0.1-0.4,0.2-0.8,0.2-1.4c0-0.4,0-0.7-0.1-1C288.2,150.1,288.1,149.8,288,149.6z"/>
	<path class="st0" d="M299.7,149c0-0.6,0-1.1,0-1.4c0-0.4,0-0.8-0.1-1.1c0-0.4-0.1-0.7-0.2-0.9s-0.2-0.4-0.3-0.7s-0.3-0.4-0.5-0.5
		c-0.2-0.1-0.4-0.2-0.7-0.3c-0.3-0.1-0.6-0.1-0.9-0.2c-0.3,0-0.7,0-1.2,0c-0.7,0-1.2,0-1.7,0.1c-0.4,0.1-0.8,0.2-1.1,0.3
		c-0.3,0.2-0.6,0.4-0.7,0.6s-0.3,0.5-0.4,1c-0.1,0.5-0.2,0.9-0.2,1.4c0,0.5,0,1.1,0,1.9c0,0.6,0,1.1,0,1.4s0,0.7,0.1,1.1
		c0.1,0.4,0.1,0.7,0.3,0.9c0.1,0.2,0.3,0.4,0.5,0.7c0.2,0.2,0.5,0.4,0.8,0.5s0.7,0.2,1.1,0.3c0.4,0.1,1,0.1,1.6,0.1
		c0.5,0,0.9,0,1.2,0c0.3,0,0.6-0.1,0.9-0.2c0.3-0.1,0.5-0.2,0.6-0.3c0.2-0.1,0.3-0.3,0.4-0.5c0.1-0.2,0.2-0.5,0.2-0.8
		c0-0.3,0.1-0.6,0.1-1.1l-1.4-0.3c0,0.1,0,0.3,0,0.5c0,0.2,0,0.3,0,0.4c0,0.1,0,0.2-0.1,0.3c0,0.1-0.1,0.2-0.2,0.3
		c-0.1,0.1-0.2,0.1-0.4,0.2c-0.2,0.1-0.4,0.1-0.6,0.1c-0.2,0-0.5,0-0.9,0c-0.9,0-1.5-0.1-1.8-0.2c-0.3-0.1-0.5-0.4-0.5-0.8
		c0-1-0.1-2-0.1-2.9h4.9C298.6,149.1,299,149.1,299.7,149z M293.5,148.2c0-0.1,0-0.2,0-0.5s0-0.4,0-0.5c0-0.1,0-0.3,0-0.5
		c0-0.2,0-0.4,0.1-0.5c0-0.1,0.1-0.3,0.1-0.4c0-0.1,0.1-0.2,0.2-0.3c0.1-0.1,0.2-0.1,0.3-0.2c0.2-0.1,0.8-0.1,1.6-0.1
		c0.8,0,1.3,0.1,1.6,0.2c0.3,0.1,0.5,0.4,0.5,0.7c0,0.6,0.1,1.3,0.1,2.1H293.5z"/>
	<polygon class="st0" points="318.8,151.6 316.2,140.6 314.4,140.6 311.8,151.6 309.7,140.6 307.7,140.6 310.7,154.1 312.7,154.1 
		315.2,143.5 317.8,154.1 319.7,154.1 322.6,140.6 320.9,140.6 	"/>
	<path class="st0" d="M333.7,149c0-0.6,0-1.1,0-1.4c0-0.4,0-0.8-0.1-1.1c0-0.4-0.1-0.7-0.2-0.9s-0.2-0.4-0.3-0.7s-0.3-0.4-0.5-0.5
		c-0.2-0.1-0.4-0.2-0.7-0.3c-0.3-0.1-0.6-0.1-0.9-0.2c-0.3,0-0.7,0-1.2,0c-0.7,0-1.2,0-1.7,0.1c-0.4,0.1-0.8,0.2-1.1,0.3
		c-0.3,0.2-0.6,0.4-0.7,0.6s-0.3,0.5-0.4,1c-0.1,0.5-0.2,0.9-0.2,1.4c0,0.5,0,1.1,0,1.9c0,0.6,0,1.1,0,1.4s0,0.7,0.1,1.1
		c0.1,0.4,0.1,0.7,0.3,0.9c0.1,0.2,0.3,0.4,0.5,0.7c0.2,0.2,0.5,0.4,0.8,0.5s0.7,0.2,1.1,0.3c0.4,0.1,1,0.1,1.6,0.1
		c0.5,0,0.9,0,1.2,0c0.3,0,0.6-0.1,0.9-0.2c0.3-0.1,0.5-0.2,0.6-0.3c0.2-0.1,0.3-0.3,0.4-0.5c0.1-0.2,0.2-0.5,0.2-0.8
		c0-0.3,0.1-0.6,0.1-1.1l-1.4-0.3c0,0.1,0,0.3,0,0.5c0,0.2,0,0.3,0,0.4c0,0.1,0,0.2-0.1,0.3c0,0.1-0.1,0.2-0.2,0.3
		c-0.1,0.1-0.2,0.1-0.4,0.2c-0.2,0.1-0.4,0.1-0.6,0.1c-0.2,0-0.5,0-0.9,0c-0.9,0-1.5-0.1-1.8-0.2c-0.3-0.1-0.5-0.4-0.5-0.8
		c0-1-0.1-2-0.1-2.9h4.9C332.5,149.1,333,149.1,333.7,149z M327.4,148.2c0-0.1,0-0.2,0-0.5s0-0.4,0-0.5c0-0.1,0-0.3,0-0.5
		c0-0.2,0-0.4,0.1-0.5c0-0.1,0.1-0.3,0.1-0.4c0-0.1,0.1-0.2,0.2-0.3c0.1-0.1,0.2-0.1,0.3-0.2c0.2-0.1,0.8-0.1,1.6-0.1
		c0.8,0,1.3,0.1,1.6,0.2c0.3,0.1,0.5,0.4,0.5,0.7c0,0.6,0.1,1.3,0.1,2.1H327.4z"/>
	<path class="st0" d="M344.1,144.7c-0.3-0.3-0.7-0.5-1.1-0.6c-0.5-0.1-1-0.2-1.8-0.2c-0.5,0-0.9,0-1.2,0c-0.3,0-0.6,0.1-1,0.2
		s-0.6,0.2-0.8,0.4s-0.3,0.4-0.5,0.7c-0.1,0.3-0.2,0.6-0.2,1c0,0.2,0,0.3,0,0.4l1.4,0.1c0-0.1,0-0.2,0-0.3c0-0.3,0-0.5,0-0.6
		c0-0.1,0.1-0.2,0.2-0.3c0.1-0.1,0.3-0.2,0.6-0.2c0.3,0,0.6,0,1.2,0c0.7,0,1.3,0.1,1.5,0.2s0.4,0.3,0.4,0.6v2.7c-0.6,0-1,0-1.5,0
		c-0.4,0-0.8,0-1.3,0.1c-0.4,0-0.8,0.1-1.1,0.2c-0.3,0.1-0.6,0.2-0.9,0.3c-0.3,0.1-0.5,0.3-0.7,0.4s-0.3,0.3-0.4,0.6
		c-0.1,0.2-0.1,0.5-0.1,0.8c0,0.6,0,1.1,0.1,1.6c0.1,0.4,0.2,0.7,0.5,1c0.2,0.3,0.5,0.5,0.9,0.6c0.4,0.1,0.9,0.2,1.5,0.2
		c0.9,0,1.6-0.1,2.1-0.3c0.5-0.2,0.8-0.6,1-1.2l0.3,1.4h1.4v-6.6c0-0.7-0.1-1.3-0.2-1.8C344.6,145.3,344.4,145,344.1,144.7z
		 M343.1,151.3c0,0.4-0.1,0.7-0.3,0.9c-0.2,0.2-0.4,0.4-0.9,0.6s-0.9,0.2-1.6,0.2c-0.8,0-1.2-0.1-1.4-0.3c-0.2-0.2-0.2-0.8-0.2-1.7
		c0,0,0,0,0-0.1c0-0.3,0.1-0.5,0.3-0.7c0.2-0.2,0.6-0.3,1.3-0.4s1.6-0.1,2.7-0.1V151.3z"/>
	<path class="st0" d="M351.3,141.2l-1.8,0.1v2.8h-1.3v1h1.3v6.8c0,0.4,0,0.7,0.1,1c0.1,0.3,0.2,0.5,0.3,0.7c0.1,0.2,0.4,0.4,0.6,0.5
		c0.3,0.1,0.6,0.1,1.1,0.1c0.4,0,0.9,0,1.4-0.1l0-1.3c-0.5,0-0.9,0.1-1.1,0.1c-0.3,0-0.5-0.1-0.5-0.3c-0.1-0.2-0.1-0.6-0.1-1.3v-6.1
		h1.8v-1h-1.8V141.2z"/>
	<path class="st0" d="M364.7,146c0-0.2-0.1-0.4-0.1-0.5c0-0.1-0.1-0.3-0.2-0.4c-0.1-0.2-0.2-0.3-0.3-0.4c-0.1-0.1-0.3-0.2-0.4-0.3
		c-0.2-0.1-0.4-0.2-0.6-0.2c-0.2-0.1-0.5-0.1-0.8-0.1c-0.3,0-0.6-0.1-1-0.1c-1.4,0-2.3,0.3-2.7,1v-4.4l-1.8,0.1v13.4h1.8v-5.2
		c0-0.9,0-1.8,0.1-2.9c0-0.2,0.1-0.3,0.2-0.4c0.1-0.1,0.3-0.2,0.5-0.3c0.2-0.1,0.4-0.1,0.6-0.1c0.2,0,0.4,0,0.7,0
		c0.5,0,0.9,0,1.2,0.1c0.3,0,0.5,0.1,0.7,0.3c0.2,0.1,0.3,0.3,0.3,0.4c0,0.2,0.1,0.4,0.1,0.7c0,0.1,0,0.3,0,0.7c0,0.3,0,0.6,0,0.8v6
		h1.8v-5.7c0-0.1,0-0.3,0-0.6c0-0.3,0-0.4,0-0.6c0-0.3,0-0.5,0-0.7C364.7,146.4,364.7,146.2,364.7,146z"/>
	<path class="st0" d="M376.8,149c0-0.6,0-1.1,0-1.4c0-0.4,0-0.8-0.1-1.1c0-0.4-0.1-0.7-0.2-0.9s-0.2-0.4-0.3-0.7s-0.3-0.4-0.5-0.5
		c-0.2-0.1-0.4-0.2-0.7-0.3c-0.3-0.1-0.6-0.1-0.9-0.2c-0.3,0-0.7,0-1.2,0c-0.7,0-1.2,0-1.7,0.1c-0.4,0.1-0.8,0.2-1.1,0.3
		c-0.3,0.2-0.6,0.4-0.7,0.6s-0.3,0.5-0.4,1c-0.1,0.5-0.2,0.9-0.2,1.4c0,0.5,0,1.1,0,1.9c0,0.6,0,1.1,0,1.4s0,0.7,0.1,1.1
		c0.1,0.4,0.1,0.7,0.3,0.9c0.1,0.2,0.3,0.4,0.5,0.7c0.2,0.2,0.5,0.4,0.8,0.5s0.7,0.2,1.1,0.3c0.4,0.1,1,0.1,1.6,0.1
		c0.5,0,0.9,0,1.2,0c0.3,0,0.6-0.1,0.9-0.2c0.3-0.1,0.5-0.2,0.6-0.3c0.2-0.1,0.3-0.3,0.4-0.5c0.1-0.2,0.2-0.5,0.2-0.8
		c0-0.3,0.1-0.6,0.1-1.1l-1.4-0.3c0,0.1,0,0.3,0,0.5c0,0.2,0,0.3,0,0.4c0,0.1,0,0.2-0.1,0.3c0,0.1-0.1,0.2-0.2,0.3
		c-0.1,0.1-0.2,0.1-0.4,0.2c-0.2,0.1-0.4,0.1-0.6,0.1c-0.2,0-0.5,0-0.9,0c-0.9,0-1.5-0.1-1.8-0.2c-0.3-0.1-0.5-0.4-0.5-0.8
		c0-1-0.1-2-0.1-2.9h4.9C375.6,149.1,376,149.1,376.8,149z M370.5,148.2c0-0.1,0-0.2,0-0.5s0-0.4,0-0.5c0-0.1,0-0.3,0-0.5
		c0-0.2,0-0.4,0.1-0.5c0-0.1,0.1-0.3,0.1-0.4c0-0.1,0.1-0.2,0.2-0.3c0.1-0.1,0.2-0.1,0.3-0.2c0.2-0.1,0.8-0.1,1.6-0.1
		c0.8,0,1.3,0.1,1.6,0.2c0.3,0.1,0.5,0.4,0.5,0.7c0,0.6,0.1,1.3,0.1,2.1H370.5z"/>
	<path class="st0" d="M383.3,144.3c-0.4,0.2-0.7,0.6-0.8,1l-0.2-1.1h-1.6v9.9h1.8v-4.3c0-0.2,0-0.5,0-1c0-0.5,0-0.8,0-1.1
		c0-0.4,0-0.8,0.1-1.1s0.1-0.5,0.3-0.7c0.1-0.2,0.3-0.3,0.6-0.4c0.3-0.1,0.6-0.1,1-0.1c0.2,0,0.4,0,0.7,0l0.1-1.5
		c-0.1,0-0.3,0-0.4,0C384.1,143.9,383.7,144.1,383.3,144.3z"/>
	<path class="st0" d="M403.4,142.8c-0.2-0.4-0.4-0.8-0.6-1c-0.2-0.3-0.6-0.5-1-0.6c-0.4-0.2-0.9-0.3-1.4-0.4
		c-0.5-0.1-1.2-0.1-1.9-0.1h-4.7v13.5h3.3c0.7,0,1.3,0,1.7,0c0.5,0,0.9,0,1.4-0.1c0.5-0.1,0.8-0.1,1.1-0.2c0.3-0.1,0.6-0.2,0.8-0.4
		s0.5-0.3,0.6-0.5s0.3-0.4,0.4-0.8c0.1-0.3,0.2-0.7,0.3-1c0.1-0.3,0.1-0.8,0.2-1.3c0-0.6,0.1-1.1,0.1-1.6c0-0.5,0-1.2,0-2
		c0-0.8,0-1.4-0.1-2C403.7,143.7,403.6,143.2,403.4,142.8z M402,148.5c0,0.5,0,1,0,1.4c0,0.4-0.1,0.7-0.1,1
		c-0.1,0.3-0.1,0.6-0.2,0.8s-0.2,0.4-0.4,0.5c-0.2,0.1-0.4,0.3-0.5,0.3c-0.2,0.1-0.4,0.1-0.7,0.2c-0.3,0-0.7,0.1-0.9,0.1
		c-0.3,0-0.7,0-1.2,0h-2.2V142h1.9c0.6,0,1.1,0,1.5,0c0.4,0,0.8,0.1,1.1,0.2c0.3,0.1,0.6,0.2,0.8,0.2c0.2,0.1,0.4,0.2,0.5,0.4
		s0.3,0.4,0.3,0.5s0.1,0.4,0.2,0.8c0,0.4,0.1,0.7,0.1,0.9s0,0.6,0,1.2V148.5z"/>
	<path class="st0" d="M414.4,144.7c-0.3-0.3-0.7-0.5-1.1-0.6c-0.5-0.1-1-0.2-1.8-0.2c-0.5,0-0.9,0-1.2,0c-0.3,0-0.6,0.1-1,0.2
		s-0.6,0.2-0.8,0.4s-0.3,0.4-0.5,0.7c-0.1,0.3-0.2,0.6-0.2,1c0,0.2,0,0.3,0,0.4l1.4,0.1c0-0.1,0-0.2,0-0.3c0-0.3,0-0.5,0-0.6
		c0-0.1,0.1-0.2,0.2-0.3c0.1-0.1,0.3-0.2,0.6-0.2c0.3,0,0.6,0,1.2,0c0.7,0,1.3,0.1,1.5,0.2s0.4,0.3,0.4,0.6v2.7c-0.6,0-1,0-1.5,0
		c-0.4,0-0.8,0-1.3,0.1c-0.4,0-0.8,0.1-1.1,0.2c-0.3,0.1-0.6,0.2-0.9,0.3c-0.3,0.1-0.5,0.3-0.7,0.4s-0.3,0.3-0.4,0.6
		c-0.1,0.2-0.1,0.5-0.1,0.8c0,0.6,0,1.1,0.1,1.6c0.1,0.4,0.2,0.7,0.5,1c0.2,0.3,0.5,0.5,0.9,0.6c0.4,0.1,0.9,0.2,1.5,0.2
		c0.9,0,1.6-0.1,2.1-0.3c0.5-0.2,0.8-0.6,1-1.2l0.3,1.4h1.4v-6.6c0-0.7-0.1-1.3-0.2-1.8C414.9,145.3,414.7,145,414.4,144.7z
		 M413.4,151.3c0,0.4-0.1,0.7-0.3,0.9c-0.2,0.2-0.4,0.4-0.9,0.6s-0.9,0.2-1.6,0.2c-0.8,0-1.2-0.1-1.4-0.3c-0.2-0.2-0.2-0.8-0.2-1.7
		c0,0,0,0,0-0.1c0-0.3,0.1-0.5,0.3-0.7c0.2-0.2,0.6-0.3,1.3-0.4s1.6-0.1,2.7-0.1V151.3z"/>
	<path class="st0" d="M421.6,141.2l-1.8,0.1v2.8h-1.3v1h1.3v6.8c0,0.4,0,0.7,0.1,1c0.1,0.3,0.2,0.5,0.3,0.7c0.1,0.2,0.4,0.4,0.6,0.5
		c0.3,0.1,0.6,0.1,1.1,0.1c0.4,0,0.9,0,1.4-0.1l0-1.3c-0.5,0-0.9,0.1-1.1,0.1c-0.3,0-0.5-0.1-0.5-0.3c-0.1-0.2-0.1-0.6-0.1-1.3v-6.1
		h1.8v-1h-1.8V141.2z"/>
	<path class="st0" d="M433.7,144.7c-0.3-0.3-0.7-0.5-1.1-0.6c-0.5-0.1-1-0.2-1.8-0.2c-0.5,0-0.9,0-1.2,0c-0.3,0-0.6,0.1-1,0.2
		s-0.6,0.2-0.8,0.4s-0.3,0.4-0.5,0.7c-0.1,0.3-0.2,0.6-0.2,1c0,0.2,0,0.3,0,0.4l1.4,0.1c0-0.1,0-0.2,0-0.3c0-0.3,0-0.5,0-0.6
		c0-0.1,0.1-0.2,0.2-0.3c0.1-0.1,0.3-0.2,0.6-0.2c0.3,0,0.6,0,1.2,0c0.7,0,1.3,0.1,1.5,0.2s0.4,0.3,0.4,0.6v2.7c-0.6,0-1,0-1.5,0
		c-0.4,0-0.8,0-1.3,0.1c-0.4,0-0.8,0.1-1.1,0.2c-0.3,0.1-0.6,0.2-0.9,0.3c-0.3,0.1-0.5,0.3-0.7,0.4s-0.3,0.3-0.4,0.6
		c-0.1,0.2-0.1,0.5-0.1,0.8c0,0.6,0,1.1,0.1,1.6c0.1,0.4,0.2,0.7,0.5,1c0.2,0.3,0.5,0.5,0.9,0.6c0.4,0.1,0.9,0.2,1.5,0.2
		c0.9,0,1.6-0.1,2.1-0.3c0.5-0.2,0.8-0.6,1-1.2l0.3,1.4h1.4v-6.6c0-0.7-0.1-1.3-0.2-1.8C434.1,145.3,433.9,145,433.7,144.7z
		 M432.6,151.3c0,0.4-0.1,0.7-0.3,0.9c-0.2,0.2-0.4,0.4-0.9,0.6s-0.9,0.2-1.6,0.2c-0.8,0-1.2-0.1-1.4-0.3c-0.2-0.2-0.2-0.8-0.2-1.7
		c0,0,0,0,0-0.1c0-0.3,0.1-0.5,0.3-0.7c0.2-0.2,0.6-0.3,1.3-0.4s1.6-0.1,2.7-0.1V151.3z"/>
	<path class="st0" d="M193.5,0h-14.7l-49.1,113.2H88.4c-3.3-21.3-21.7-37.7-44-37.7C20,75.5,0,95.4,0,120s20,44.5,44.5,44.5
		c22.2,0,40.7-16.4,44-37.7h50l1.8-4.1l0,0L193.5,0z M44.5,151c-17.1,0-31-13.9-31-31s13.9-31,31-31s31,13.9,31,31
		S61.6,151,44.5,151z"/>
	<polygon class="st0" points="262.4,0 247.7,0 198.4,113.2 155.4,113.2 149.5,126.7 207.3,126.7 211.8,116.2 	"/>
	<polygon class="st0" points="369.5,126.7 424.1,0 409.4,0 360.6,113.2 314.6,113.2 363.4,0 348.7,0 300,113.2 256.7,113.2 305.5,0 
		290.8,0 236.2,126.7 	"/>
	<path class="st0" d="M455.2,0l-23.5,54.6h-11.5l-5.9,13.5h11.5l-25.3,58.6h8.4h6.3h57.4h12.1h2.6L542,0H455.2z M478.5,113.2h-57.4
		l19.5-45.2h12.6l5.9-13.5h-12.6L464,13.5h57.4L478.5,113.2z"/>
</g>
<g>
</g>
<g>
</g>
<g>
</g>
<g>
</g>
<g>
</g>
<g>
</g>
<g>
</g>
<g>
</g>
<g>
</g>
<g>
</g>
<g>
</g>
<g>
</g>
<g>
</g>
<g>
</g>
<g>
</g>
</svg>
